<svg width="21" height="21" viewBox="0 0 21 21" fill="none" xmlns="http://www.w3.org/2000/svg">
<path d="M17.6449 9.00467C17.387 8.88992 14.972 7.81489 14.7132 7.70014C13.4988 7.15954 12.0765 7.7063 11.5366 8.91996L18.8647 12.1813C19.4053 10.9668 18.8586 9.5445 17.6449 9.00467ZM19.4161 1.07741C19.0111 0.897212 18.5806 0.943417 18.4489 1.19061L14.9403 7.80108L17.3076 8.85379L19.9798 1.87137C20.0753 1.608 19.8212 1.25761 19.4161 1.07741Z" stroke="#B2B7C1" stroke-width="1.4" stroke-linecap="round" stroke-linejoin="round"/>
<path d="M17.6772 13.2178C16.1732 17.7967 14.2264 20.167 14.2264 20.167C14.2264 20.167 7.52132 19.9237 3.17188 14.5546C4.06979 14.6185 9.66754 14.1372 11.5958 10.4185" stroke="#B2B7C1" stroke-width="1.4" stroke-linecap="round" stroke-linejoin="round"/>
<path d="M5.77051 17.0255C5.77051 17.0255 7.89439 16.7455 9.03412 15.5549C8.12233 17.2268 7.03653 17.8611 7.03653 17.8611L5.77051 17.0255ZM8.76457 18.6996C8.76457 18.6996 10.4349 18.7185 13.2765 16.1009C12.2546 18.4312 10.922 19.5623 10.922 19.5623L8.76457 18.6996Z" stroke="#B2B7C1" stroke-width="1.4" stroke-linecap="round" stroke-linejoin="round"/>
<path d="M1.20337 8.04435C1.27136 8.01619 1.34423 8.00169 1.41782 8.00169C1.49142 8.00169 1.56429 8.01619 1.63228 8.04435C1.70027 8.07251 1.76205 8.11379 1.81409 8.16583C1.86612 8.21787 1.9074 8.27965 1.93557 8.34764C1.96373 8.41563 1.97822 8.4885 1.97822 8.56209C1.97822 8.63569 1.96373 8.70856 1.93557 8.77655C1.9074 8.84454 1.86612 8.90632 1.81409 8.95836C1.76205 9.0104 1.70027 9.05167 1.63228 9.07984C1.56429 9.108 1.49142 9.1225 1.41782 9.1225C1.34423 9.1225 1.27136 9.108 1.20337 9.07984C1.13538 9.05167 1.0736 9.0104 1.02156 8.95836C0.969521 8.90632 0.928243 8.84454 0.90008 8.77655C0.871917 8.70856 0.857422 8.63569 0.857422 8.56209C0.857422 8.4885 0.871917 8.41563 0.90008 8.34764C0.928243 8.27965 0.969521 8.21787 1.02156 8.16583C1.0736 8.11379 1.13538 8.07251 1.20337 8.04435Z" fill="#B2B7C1"/>
<path d="M2.83485 8.48472C2.90491 8.41466 2.99994 8.37529 3.09903 8.37529C3.19811 8.37529 3.29314 8.41466 3.3632 8.48472C3.43327 8.55478 3.47263 8.64981 3.47263 8.7489C3.47263 8.84798 3.43327 8.94301 3.3632 9.01307C3.29314 9.08313 3.19811 9.1225 3.09903 9.1225C2.99994 9.1225 2.90491 9.08313 2.83485 9.01307C2.76479 8.94301 2.72543 8.84798 2.72543 8.7489C2.72543 8.64981 2.76479 8.55478 2.83485 8.48472Z" fill="#B2B7C1"/>
<path d="M2.25179 10.1433C2.42695 9.9681 2.66451 9.8697 2.91223 9.8697C3.15994 9.8697 3.39751 9.9681 3.57266 10.1433C3.74782 10.3184 3.84623 10.556 3.84623 10.8037C3.84623 11.0514 3.74782 11.289 3.57266 11.4641C3.39751 11.6393 3.15994 11.7377 2.91223 11.7377C2.66451 11.7377 2.42695 11.6393 2.25179 11.4641C2.07663 11.289 1.97822 11.0514 1.97822 10.8037C1.97822 10.556 2.07663 10.3184 2.25179 10.1433Z" fill="#B2B7C1"/>
</svg>
